<svg width="36" height="36" viewBox="0 0 36 36" fill="none" xmlns="http://www.w3.org/2000/svg">
<path fill-rule="evenodd" clip-rule="evenodd" d="M27 12.535C28.163 12.883 29 13 29 13V10H31C32.3261 10 33.5979 9.47322 34.5355 8.53553C35.4732 7.59785 36 6.32608 36 5C36 3.67392 35.4732 2.40215 34.5355 1.46447C33.5979 0.526784 32.3261 0 31 0H25.236C23.8473 0 22.5155 0.551648 21.5336 1.53359C20.5516 2.51553 20 3.84733 20 5.236C20 9.754 24.348 11.742 27 12.535ZM34 5C34 5.79565 33.6839 6.55871 33.1213 7.12132C32.5587 7.68393 31.7956 8 31 8H27V10.435C26.4514 10.2487 25.9158 10.0259 25.397 9.768C23.414 8.774 22 7.36 22 5.236C22 4.37776 22.3409 3.55467 22.9478 2.9478C23.5547 2.34093 24.3778 2 25.236 2H31C31.7956 2 32.5587 2.31607 33.1213 2.87868C33.6839 3.44129 34 4.20435 34 5ZM8.817 11.993C7.50652 11.9476 6.26636 11.3891 5.36391 10.4377C4.46147 9.48641 3.96903 8.21853 3.99278 6.90748C4.01652 5.59643 4.55455 4.34722 5.49086 3.4292C6.42716 2.51118 7.68673 1.99789 8.998 2H12.167C13.4488 2 14.6781 2.50919 15.5844 3.41555C16.4908 4.32192 17 5.55121 17 6.833C17 10.875 13.37 12.723 11 13.5C9.852 13.876 9 14 9 14V12L8.817 11.993ZM11 10.071L8.89 9.995C8.09708 9.97777 7.3433 9.64705 6.7937 9.07525C6.2441 8.50346 5.94346 7.73718 5.95762 6.94421C5.97177 6.15123 6.29956 5.39617 6.86922 4.84435C7.43887 4.29254 8.20397 3.98893 8.997 4H12.166C12.5381 3.99987 12.9066 4.07305 13.2505 4.21536C13.5943 4.35768 13.9067 4.56633 14.1699 4.82941C14.4331 5.09249 14.6418 5.40485 14.7843 5.74863C14.9267 6.09241 15 6.46088 15 6.833C15 8.748 13.783 10.003 12.076 10.893C11.716 11.081 11.351 11.241 11 11.377V10.071ZM22 18C22 20.21 20.21 22 18 22C15.79 22 14 20.21 14 18C14 15.79 15.79 14 18 14C20.21 14 22 15.79 22 18ZM20 18C20 18.5304 19.7893 19.0391 19.4142 19.4142C19.0391 19.7893 18.5304 20 18 20C17.4696 20 16.9609 19.7893 16.5858 19.4142C16.2107 19.0391 16 18.5304 16 18C16 17.4696 16.2107 16.9609 16.5858 16.5858C16.9609 16.2107 17.4696 16 18 16C18.5304 16 19.0391 16.2107 19.4142 16.5858C19.7893 16.9609 20 17.4696 20 18ZM13 20C13 22.21 11.21 24 9 24C6.79 24 5 22.21 5 20C5 17.79 6.79 16 9 16C11.21 16 13 17.79 13 20ZM11 20C11 20.5304 10.7893 21.0391 10.4142 21.4142C10.0391 21.7893 9.53043 22 9 22C8.46957 22 7.96086 21.7893 7.58579 21.4142C7.21071 21.0391 7 20.5304 7 20C7 19.4696 7.21071 18.9609 7.58579 18.5858C7.96086 18.2107 8.46957 18 9 18C9.53043 18 10.0391 18.2107 10.4142 18.5858C10.7893 18.9609 11 19.4696 11 20ZM0 30.545C0 27.523 5.996 26 9 26C9.585 26 10.284 26.058 11.03 26.173C12.37 25.19 14.827 24 18 24C21.172 24 23.629 25.19 24.971 26.173C25.6421 26.0648 26.3203 26.007 27 26C30.004 26 36 27.523 36 30.545V36H0V30.545ZM15.652 30.023C16 30.347 16 30.516 16 30.545V34H2V30.545C2 30.515 2 30.347 2.348 30.023C2.711 29.684 3.31 29.323 4.124 28.993C5.756 28.333 7.75 28 9 28C10.25 28 12.244 28.333 13.876 28.993C14.69 29.323 15.289 29.684 15.652 30.023ZM22.142 26.856C20.8348 26.2892 19.4248 25.9978 18 26C16.344 26 14.936 26.386 13.859 26.856C16.074 27.6 18 28.832 18 30.546C18 28.832 19.926 27.601 22.142 26.856ZM34 30.546C34 30.516 34 30.347 33.652 30.023C33.289 29.684 32.69 29.323 31.876 28.993C30.244 28.333 28.25 28 27 28C25.75 28 23.756 28.333 22.124 28.993C21.31 29.323 20.711 29.684 20.348 30.023C20 30.347 20 30.516 20 30.545V34H34V30.545V30.546ZM27 24C29.21 24 31 22.21 31 20C31 17.79 29.21 16 27 16C24.79 16 23 17.79 23 20C23 22.21 24.79 24 27 24ZM27 22C27.5304 22 28.0391 21.7893 28.4142 21.4142C28.7893 21.0391 29 20.5304 29 20C29 19.4696 28.7893 18.9609 28.4142 18.5858C28.0391 18.2107 27.5304 18 27 18C26.4696 18 25.9609 18.2107 25.5858 18.5858C25.2107 18.9609 25 19.4696 25 20C25 20.5304 25.2107 21.0391 25.5858 21.4142C25.9609 21.7893 26.4696 22 27 22Z" fill="#EE7933"/>
</svg>
