<svg width="30" height="30" viewBox="0 0 30 30" fill="none" xmlns="http://www.w3.org/2000/svg">
<path d="M21 25.5V28.5C21 28.925 20.8562 29.2812 20.5687 29.5687C20.2812 29.8562 19.925 30 19.5 30H1.5C1.075 30 0.71875 29.8562 0.43125 29.5687C0.14375 29.2812 0 28.925 0 28.5V16.5C0 16.075 0.14375 15.7187 0.43125 15.4312C0.71875 15.1437 1.075 15 1.5 15H6V9C6 6.5 6.875 4.375 8.625 2.625C10.375 0.875 12.5 0 15 0H21C23.5 0 25.625 0.875 27.375 2.625C29.125 4.375 30 6.5 30 9V30H27V25.5H21ZM21 22.5H27V9C27 7.35 26.4125 5.9375 25.2375 4.7625C24.0625 3.5875 22.65 3 21 3H15C13.35 3 11.9375 3.5875 10.7625 4.7625C9.5875 5.9375 9 7.35 9 9V15H19.5C19.925 15 20.2812 15.1437 20.5687 15.4312C20.8562 15.7187 21 16.075 21 16.5V22.5ZM12 12V9H24V12H12ZM10.5 22.275L18 18H3L10.5 22.275ZM10.5 24.9L3 20.625V27H18V20.625L10.5 24.9Z" fill="#EE7933"/>
</svg>
