<svg width="75" height="75" viewBox="0 0 75 75" fill="none" xmlns="http://www.w3.org/2000/svg">
<path d="M0 10.4167H5.34722V64.5833H0V10.4167ZM10.6944 5H16.0417V70H10.6944V5ZM32.0833 53.75H64.1667V59.1667H32.0833V53.75ZM32.0833 37.5H64.1667V42.9167H32.0833V37.5Z" fill="#1C4698"/>
<path d="M74.1998 19.5536L55.5332 0.803571C54.9998 0.267857 54.4665 0 53.6665 0H26.9998C24.0665 0 21.6665 2.41071 21.6665 5.35714V69.6429C21.6665 72.5893 24.0665 75 26.9998 75H69.6665C72.5998 75 74.9998 72.5893 74.9998 69.6429V21.4286C74.9998 20.625 74.7332 20.0893 74.1998 19.5536ZM53.6665 6.42857L68.5998 21.4286H53.6665V6.42857ZM69.6665 69.6429H26.9998V5.35714H48.3332V21.4286C48.3332 24.375 50.7332 26.7857 53.6665 26.7857H69.6665V69.6429Z" fill="#1C4698"/>
</svg>
