<svg width="66" height="75" viewBox="0 0 66 75" fill="none" xmlns="http://www.w3.org/2000/svg">
<path d="M0 9.375C0 4.2041 4.2041 0 9.375 0H32.8125V18.75C32.8125 21.3428 34.9072 23.4375 37.5 23.4375H56.25V44.5312H23.4375C18.2666 44.5312 14.0625 48.7354 14.0625 53.9062V75H9.375C4.2041 75 0 70.7959 0 65.625V9.375ZM56.25 18.75H37.5V0L56.25 18.75ZM23.4375 51.5625H26.9531C31.4795 51.5625 35.1562 55.2393 35.1562 59.7656C35.1562 64.292 31.4795 67.9688 26.9531 67.9688H25.7812V72.6562C25.7812 73.9453 24.7266 75 23.4375 75C22.1484 75 21.0938 73.9453 21.0938 72.6562V53.9062C21.0938 52.6172 22.1484 51.5625 23.4375 51.5625ZM26.9531 63.2812C28.9014 63.2812 30.4688 61.7139 30.4688 59.7656C30.4688 57.8174 28.9014 56.25 26.9531 56.25H25.7812V63.2812H26.9531ZM39.8438 51.5625H43.3594C47.2412 51.5625 50.3906 54.7119 50.3906 58.5938V67.9688C50.3906 71.8506 47.2412 75 43.3594 75H39.8438C38.5547 75 37.5 73.9453 37.5 72.6562V53.9062C37.5 52.6172 38.5547 51.5625 39.8438 51.5625ZM43.3594 70.3125C44.6484 70.3125 45.7031 69.2578 45.7031 67.9688V58.5938C45.7031 57.3047 44.6484 56.25 43.3594 56.25H42.1875V70.3125H43.3594ZM53.9062 53.9062C53.9062 52.6172 54.9609 51.5625 56.25 51.5625H63.2812C64.5703 51.5625 65.625 52.6172 65.625 53.9062C65.625 55.1953 64.5703 56.25 63.2812 56.25H58.5938V60.9375H63.2812C64.5703 60.9375 65.625 61.9922 65.625 63.2812C65.625 64.5703 64.5703 65.625 63.2812 65.625H58.5938V72.6562C58.5938 73.9453 57.5391 75 56.25 75C54.9609 75 53.9062 73.9453 53.9062 72.6562V53.9062Z" fill="#EE7933"/>
</svg>
