<svg width="37" height="36" viewBox="0 0 37 36" fill="none" xmlns="http://www.w3.org/2000/svg">
<path d="M31.8593 36H31.624C4.41627 34.4354 0.553188 11.4785 0.0131882 4.47231C-0.030323 3.92757 0.0340802 3.3796 0.202707 2.8598C0.371334 2.34 0.640871 1.85857 0.995874 1.44312C1.35088 1.02766 1.78437 0.686337 2.27151 0.438701C2.75865 0.191065 3.28987 0.041984 3.83473 1.2982e-06H11.464C12.0186 -0.000535605 12.5606 0.165476 13.0198 0.476533C13.4789 0.78759 13.8341 1.22936 14.0393 1.74462L16.144 6.92308C16.3466 7.42645 16.3969 7.97826 16.2886 8.50997C16.1803 9.04168 15.9181 9.52985 15.5347 9.91385L12.5855 12.8908C13.0462 15.5087 14.2999 17.922 16.177 19.8041C18.0542 21.6862 20.4641 22.9463 23.0809 23.4138L26.0855 20.4369C26.4753 20.0578 26.968 19.8017 27.5023 19.7008C28.0367 19.5998 28.5889 19.6584 29.0901 19.8692L34.3101 21.96C34.8176 22.1717 35.2506 22.5297 35.5539 22.9883C35.8572 23.447 36.0171 23.9855 36.0132 24.5354V31.8462C36.0132 32.9478 35.5756 34.0044 34.7966 34.7834C34.0176 35.5624 32.961 36 31.8593 36ZM4.16703 2.76923C3.79981 2.76923 3.44763 2.91511 3.18796 3.17478C2.9283 3.43444 2.78242 3.78662 2.78242 4.15385V4.26462C3.41934 12.4615 7.50396 31.8462 31.7763 33.2308C31.9582 33.242 32.1405 33.2172 32.3128 33.1579C32.4851 33.0985 32.644 33.0057 32.7804 32.8847C32.9167 32.7638 33.0279 32.6172 33.1074 32.4532C33.187 32.2892 33.2334 32.1112 33.244 31.9292V24.5354L28.024 22.4446L24.0501 26.3908L23.3855 26.3077C11.3393 24.7985 9.70549 12.7523 9.70549 12.6277L9.62242 11.9631L13.5547 7.98923L11.4778 2.76923H4.16703Z" fill="#EE7933"/>
</svg>
