<svg width="14" height="12" viewBox="0 0 14 12" fill="none" xmlns="http://www.w3.org/2000/svg">
<path d="M13.2158 2.08002C12.7337 2.29365 12.2158 2.438 11.6713 2.50325C12.2331 2.16708 12.6534 1.638 12.8538 1.01472C12.326 1.32824 11.7483 1.54892 11.1459 1.66718C10.7408 1.23463 10.2042 0.94793 9.61942 0.85159C9.03467 0.75525 8.43447 0.85466 7.91201 1.13439C7.38955 1.41411 6.97405 1.85851 6.73003 2.39857C6.48601 2.93863 6.42712 3.54415 6.5625 4.12111C5.49298 4.06741 4.4467 3.78943 3.49157 3.3052C2.53644 2.82097 1.6938 2.14131 1.01833 1.31035C0.787374 1.70875 0.654573 2.17067 0.654573 2.66261C0.654315 3.10547 0.763374 3.54155 0.972071 3.93215C1.18077 4.32275 1.48265 4.65581 1.85094 4.90176C1.42383 4.88816 1.00613 4.77276 0.632632 4.56513V4.59978C0.632589 5.22091 0.847443 5.82292 1.24074 6.30367C1.63403 6.78442 2.18154 7.1143 2.79036 7.23733C2.39415 7.34456 1.97874 7.36035 1.57552 7.28352C1.7473 7.81796 2.0819 8.28532 2.53248 8.62015C2.98306 8.95498 3.52707 9.14053 4.08835 9.15082C3.13555 9.89879 1.95885 10.3045 0.747534 10.3027C0.532962 10.3028 0.318572 10.2903 0.105469 10.2652C1.33502 11.0558 2.76631 11.4753 4.22808 11.4737C9.17637 11.4737 11.8815 7.37532 11.8815 3.82087C11.8815 3.70539 11.8786 3.58875 11.8734 3.47328C12.3996 3.09276 12.8538 2.62155 13.2147 2.08175L13.2158 2.08002Z" fill="white"/>
</svg>
